<svg id="_160229_FH_P_standard_K.eps" data-name="160229_FH;P_standard_K.eps" xmlns="http://www.w3.org/2000/svg" viewBox="0 0 157.87 75.78"><defs><style>.cls-1{fill:#1d1d1b;}</style></defs><path class="cls-1" d="M51.68,46.33v1.86h1.89v1H51.68v2.85H50.33V45.3h3.45v1Z"/><path class="cls-1" d="M57.52,52.05l-.09-.51a2.23,2.23,0,0,1-1.53.62c-1,0-1.55-.5-1.55-1.43S55.18,49,56.93,49h.31v-.38c0-.51-.29-.76-.93-.76a4.72,4.72,0,0,0-1.52.3l-.17-.78a5,5,0,0,1,2-.45c1.28,0,1.88.61,1.88,1.56v3.56Zm-.28-2.26h-.38c-1,0-1.25.32-1.25.79a.6.6,0,0,0,.67.66,1.53,1.53,0,0,0,1-.43Z"/><path class="cls-1" d="M61.68,52.15c-1.32,0-2-.84-2-2.54s.81-2.68,2.09-2.68a1.92,1.92,0,0,1,1.5.63l-.45.66a1.22,1.22,0,0,0-.85-.33c-.58,0-.95.54-.95,1.59,0,1.22.33,1.7.91,1.7A1.52,1.52,0,0,0,63,50.76l.39.66A2.31,2.31,0,0,1,61.68,52.15Z"/><path class="cls-1" d="M68.39,52.05H67.11c0-1,0-2.06,0-2.62,0-1.2-.24-1.47-.7-1.47a1.69,1.69,0,0,0-.92.41v3.68H64.23V45h1.29v2.51a2.11,2.11,0,0,1,1.37-.54c1,0,1.54.62,1.54,2.27C68.43,49.8,68.39,50.94,68.39,52.05Z"/><path class="cls-1" d="M74,52.05H72.72c0-1,0-2.06,0-2.62,0-1.2-.24-1.47-.7-1.47a1.69,1.69,0,0,0-.92.41v3.68H69.84V45h1.29v2.51a2.11,2.11,0,0,1,1.37-.54c1,0,1.54.62,1.54,2.27C74,49.8,74,50.94,74,52.05Z"/><path class="cls-1" d="M77.39,52.16c-1.42,0-2.22-.72-2.22-2.52s.93-2.71,2.42-2.71,2.22.72,2.22,2.52S78.88,52.16,77.39,52.16Zm.1-4.28c-.59,0-1,.41-1,1.55,0,1.41.37,1.78,1,1.78s1-.41,1-1.55C78.49,48.25,78.12,47.88,77.49,47.88Z"/><path class="cls-1" d="M82.7,52.15c-1.32,0-2-.84-2-2.54s.81-2.68,2.09-2.68a1.92,1.92,0,0,1,1.5.63l-.45.66a1.22,1.22,0,0,0-.85-.33c-.58,0-.95.54-.95,1.59,0,1.22.33,1.7.91,1.7A1.52,1.52,0,0,0,84,50.76l.39.66A2.31,2.31,0,0,1,82.7,52.15Z"/><path class="cls-1" d="M89.41,52.05H88.13c0-1,0-2.06,0-2.62,0-1.2-.24-1.47-.7-1.47a1.69,1.69,0,0,0-.92.41v3.68H85.25V45h1.29v2.51a2.11,2.11,0,0,1,1.37-.54c1,0,1.54.62,1.54,2.27C89.45,49.8,89.41,50.94,89.41,52.05Z"/><path class="cls-1" d="M92.05,52.15a3.16,3.16,0,0,1-1.56-.41l.11-.67a5.31,5.31,0,0,0,1.22.17c.66,0,.91-.25.91-.55s-.16-.5-.89-.76c-1-.34-1.33-.75-1.33-1.48,0-.91.73-1.52,1.83-1.52a2.91,2.91,0,0,1,1.4.37L93.6,48a4.25,4.25,0,0,0-1-.15c-.52,0-.75.24-.75.52s.17.45.88.71c1,.33,1.35.8,1.35,1.52C94.09,51.47,93.34,52.15,92.05,52.15Z"/><path class="cls-1" d="M96.89,52.15c-1.32,0-2-.84-2-2.54s.81-2.68,2.09-2.68a1.92,1.92,0,0,1,1.5.63l-.45.66a1.22,1.22,0,0,0-.85-.33c-.58,0-1,.54-1,1.59,0,1.22.33,1.7.91,1.7a1.52,1.52,0,0,0,1.06-.42l.39.66A2.31,2.31,0,0,1,96.89,52.15Z"/><path class="cls-1" d="M103.6,52.05h-1.28c0-1,0-2.06,0-2.62,0-1.2-.24-1.47-.7-1.47a1.69,1.69,0,0,0-.92.41v3.68H99.44V45h1.29v2.51a2.11,2.11,0,0,1,1.37-.54c1,0,1.54.62,1.54,2.27C103.64,49.8,103.6,50.94,103.6,52.05Z"/><path class="cls-1" d="M108.16,52.05l-.1-.53a2.24,2.24,0,0,1-1.51.64c-1,0-1.54-.64-1.54-2.27,0-.62,0-1.75,0-2.85h1.29c0,1,0,2,0,2.63,0,1.18.24,1.46.69,1.46a1.71,1.71,0,0,0,.93-.41V47h1.29v5Z"/><path class="cls-1" d="M111.65,52.13c-.65,0-1-.2-1-1V45H112v5.65c0,.56.07.64.33.64h.25l0,.76A2.92,2.92,0,0,1,111.65,52.13Z"/><path class="cls-1" d="M114.5,49.8v.07c0,.92.4,1.31,1.12,1.31a5.5,5.5,0,0,0,1.62-.29l.19.74a4.51,4.51,0,0,1-2.07.53c-1.31,0-2.18-.65-2.18-2.48s.87-2.75,2.27-2.75,2.14.72,2,2.87Zm1.71-.82c0-.8-.27-1.19-.81-1.19s-.86.49-.9,1.21h1.71Z"/><path class="cls-1" d="M123,49.78h-.28v2.27h-1.35V45.3l2,0c1.82,0,2.49.83,2.49,2.12S125.06,49.78,123,49.78Zm.13-3.51h-.41v2.51h.41a1.13,1.13,0,0,0,1.29-1.26C124.39,46.71,124,46.27,123.1,46.27Z"/><path class="cls-1" d="M128.68,52.16c-1.42,0-2.22-.72-2.22-2.52s.93-2.71,2.42-2.71,2.21.72,2.21,2.52S130.17,52.16,128.68,52.16Zm.1-4.28c-.59,0-1,.41-1,1.55,0,1.41.37,1.78,1,1.78s1-.41,1-1.55C129.78,48.25,129.41,47.88,128.78,47.88Z"/><path class="cls-1" d="M133.58,52.15c-.92,0-1.27-.35-1.27-1.31v-2.9h-.63V47h.68a14.34,14.34,0,0,0,.3-1.46h.94V47h1.11v.9H133.6v2.58c0,.51.12.67.45.67a2.48,2.48,0,0,0,.69-.11l.1.74A2.72,2.72,0,0,1,133.58,52.15Z"/><path class="cls-1" d="M137,52.15a3.16,3.16,0,0,1-1.56-.41l.11-.67a5.31,5.31,0,0,0,1.22.17c.66,0,.91-.25.91-.55s-.16-.5-.89-.76c-1-.34-1.33-.75-1.33-1.48,0-.91.73-1.52,1.83-1.52a2.91,2.91,0,0,1,1.4.37l-.14.66a4.25,4.25,0,0,0-1-.15c-.52,0-.75.24-.75.52s.17.45.88.71c1,.33,1.35.8,1.35,1.52C139.07,51.47,138.32,52.15,137,52.15Z"/><path class="cls-1" d="M143.13,52.05l-.09-.51a2.18,2.18,0,0,1-1.41.62c-1.17,0-1.76-1.07-1.76-2.41,0-2,1.09-2.82,2.47-2.82.2,0,.43,0,.56,0V45h1.28v7.09ZM142.9,48a2,2,0,0,0-.61-.1c-.65,0-1.1.53-1.1,1.72s.31,1.6.82,1.6a1.51,1.51,0,0,0,.89-.42Z"/><path class="cls-1" d="M148.49,52.05l-.09-.51a2.23,2.23,0,0,1-1.53.62c-1,0-1.55-.5-1.55-1.43S146.15,49,147.9,49h.31v-.38c0-.51-.29-.76-.93-.76a4.72,4.72,0,0,0-1.52.3l-.17-.78a5,5,0,0,1,2-.45c1.27,0,1.87.61,1.87,1.56v3.56Zm-.28-2.26h-.38c-1,0-1.25.32-1.25.79a.6.6,0,0,0,.67.66,1.53,1.53,0,0,0,1-.43Z"/><path class="cls-1" d="M157.83,52.05h-1.28c0-1,0-2,0-2.62,0-1.2-.22-1.47-.65-1.47a1.81,1.81,0,0,0-1,.45,4,4,0,0,1,.06.75v2.89h-1.28V49.43c0-1.18-.22-1.47-.64-1.47a1.72,1.72,0,0,0-.9.41v3.68h-1.29V47H152l.09.53a2.21,2.21,0,0,1,1.48-.64,1.27,1.27,0,0,1,1.21.72,2.41,2.41,0,0,1,1.6-.72c1,0,1.5.64,1.5,2.26C157.87,49.81,157.83,51,157.83,52.05Z"/><path class="cls-1" d="M52.74,63.16c-1.6,0-2.42-.67-2.42-2.4V56.3h1.35v4.32c0,1.15.36,1.55,1.19,1.55s1.2-.35,1.2-1.47V56.3h1.32v4.31A2.32,2.32,0,0,1,52.74,63.16Z"/><path class="cls-1" d="M61.07,63.05H59.79c0-1,0-2,0-2.63,0-1.19-.23-1.46-.69-1.46a1.7,1.7,0,0,0-.93.41v3.68H56.91V58H58l.09.53a2.25,2.25,0,0,1,1.52-.64c1,0,1.53.64,1.53,2.27C61.11,60.82,61.07,62,61.07,63.05Z"/><path class="cls-1" d="M63.17,57.39c-.62,0-.77-.16-.77-.67s.16-.67.77-.67.76.15.76.67S63.78,57.39,63.17,57.39Zm-.65,5.66V58h1.29v5Z"/><path class="cls-1" d="M67.83,63.05H66.15l-1.43-5h1.39l.81,2.83.2,1A19.29,19.29,0,0,0,68,58h1.33A19.61,19.61,0,0,1,67.83,63.05Z"/><path class="cls-1" d="M71.24,60.8v.07c0,.92.4,1.31,1.12,1.31A5.5,5.5,0,0,0,74,61.89l.19.74a4.51,4.51,0,0,1-2.07.53c-1.31,0-2.18-.65-2.18-2.48s.87-2.75,2.27-2.75,2.14.72,2,2.87ZM73,60c0-.8-.27-1.19-.81-1.19s-.86.49-.9,1.21H73Z"/><path class="cls-1" d="M78.14,59.18a1.52,1.52,0,0,0-.44-.07c-.28,0-.52.19-1,.76v3.18H75.44V58H76.5l.1.78c.51-.67.85-.88,1.21-.88a1.08,1.08,0,0,1,.48.11Z"/><path class="cls-1" d="M80.37,63.15a3.16,3.16,0,0,1-1.56-.41l.11-.67a5.31,5.31,0,0,0,1.22.17c.66,0,.91-.25.91-.55s-.16-.5-.89-.76c-1-.34-1.33-.75-1.33-1.48,0-.91.73-1.52,1.83-1.52a2.91,2.91,0,0,1,1.4.37l-.14.66a4.25,4.25,0,0,0-1-.15c-.52,0-.75.24-.75.52s.17.45.88.71c1,.33,1.35.8,1.35,1.52C82.41,62.47,81.66,63.15,80.37,63.15Z"/><path class="cls-1" d="M84.14,57.39c-.62,0-.77-.16-.77-.67s.16-.67.77-.67.76.15.76.67S84.75,57.39,84.14,57.39Zm-.65,5.66V58h1.29v5Z"/><path class="cls-1" d="M87.6,63.15c-.92,0-1.27-.35-1.27-1.31v-2.9H85.7V58h.68a14.34,14.34,0,0,0,.3-1.46h.94V58h1.11v.9H87.62v2.58c0,.51.12.67.45.67a2.48,2.48,0,0,0,.69-.11l.1.74A2.72,2.72,0,0,1,87.6,63.15Z"/><path class="cls-1" d="M90,64.84a1.68,1.68,0,0,1-.76-.21v-.74a4.6,4.6,0,0,0,.5,0,1.05,1.05,0,0,0,.72-.22.71.71,0,0,0,.29-.59,3.27,3.27,0,0,0-.23-1L89.3,58h1.38l.78,2.81a3.86,3.86,0,0,1,.22,1.24A18.52,18.52,0,0,0,92.51,58h1.33C93,63.27,91.4,64.84,90,64.84Z"/><path class="cls-1" d="M98.69,63.16c-1.42,0-2.22-.72-2.22-2.52s.93-2.71,2.42-2.71,2.22.72,2.22,2.52S100.18,63.16,98.69,63.16Zm.1-4.28c-.59,0-1,.41-1,1.55,0,1.41.37,1.78,1,1.78s1-.41,1-1.55C99.79,59.25,99.42,58.88,98.79,58.88Z"/><path class="cls-1" d="M104.8,56.9a1.68,1.68,0,0,0-.59-.12c-.39,0-.54.2-.54.62V58h.9v.9h-.9v4.11h-1.28V58.94h-.64V58h.64v-.6c0-1,.39-1.59,1.4-1.59a2.52,2.52,0,0,1,1.2.31Z"/><path class="cls-1" d="M53.78,74.05c-.08-.38-.19-.94-.29-1.33H51.26c-.09.38-.2.87-.28,1.33H49.69c.5-2.25,1.16-4.58,1.87-6.75h1.77c.78,2.31,1.37,4.48,1.91,6.75Zm-1.44-5.56c-.28,1-.62,2.2-.87,3.22h1.8C53,70.67,52.67,69.53,52.34,68.49Z"/><path class="cls-1" d="M58,74.16a4.84,4.84,0,0,1-.53,0v1.65H56.13V69h1l.1.51a2.13,2.13,0,0,1,1.39-.62c1.2,0,1.78,1.08,1.78,2.41C60.45,73.32,59.39,74.16,58,74.16Zm.36-4.24a1.48,1.48,0,0,0-.89.42v2.8a1.61,1.61,0,0,0,.6.1c.65,0,1.11-.53,1.11-1.72C59.13,70.49,58.82,69.92,58.31,69.92Z"/><path class="cls-1" d="M63.44,74.16a4.84,4.84,0,0,1-.53,0v1.65H61.62V69h1.05l.1.51a2.13,2.13,0,0,1,1.39-.62c1.2,0,1.78,1.08,1.78,2.41C65.94,73.32,64.88,74.16,63.44,74.16Zm.36-4.24a1.48,1.48,0,0,0-.89.42v2.8a1.61,1.61,0,0,0,.6.1c.65,0,1.11-.53,1.11-1.72C64.62,70.49,64.31,69.92,63.8,69.92Z"/><path class="cls-1" d="M68.1,74.13c-.65,0-1-.2-1-1V67H68.4v5.65c0,.56.07.64.33.64H69L69,74A2.92,2.92,0,0,1,68.1,74.13Z"/><path class="cls-1" d="M70.66,68.39c-.62,0-.77-.16-.77-.67s.16-.67.77-.67.76.15.76.67S71.27,68.39,70.66,68.39ZM70,74.05V69H71.3v5Z"/><path class="cls-1" d="M73.79,71.8v.07c0,.92.4,1.31,1.12,1.31a5.5,5.5,0,0,0,1.62-.29l.19.74a4.51,4.51,0,0,1-2.07.53c-1.31,0-2.18-.65-2.18-2.48s.87-2.75,2.27-2.75,2.14.72,2,2.87ZM75.5,71c0-.8-.27-1.19-.81-1.19s-.86.49-.9,1.21H75.5Z"/><path class="cls-1" d="M81,74.05l-.1-.51a2.18,2.18,0,0,1-1.41.62c-1.17,0-1.76-1.07-1.76-2.41,0-2,1.09-2.82,2.47-2.82.2,0,.43,0,.56,0V67H82v7.09ZM80.74,70a2,2,0,0,0-.61-.1c-.65,0-1.1.53-1.1,1.72s.31,1.6.82,1.6a1.51,1.51,0,0,0,.89-.42Z"/><path class="cls-1" d="M87.76,74.15a3.6,3.6,0,0,1-2-.64l.32-.71a4.29,4.29,0,0,0,1.46.36c.69,0,1.12-.3,1.12-.87,0-1.32-2.82-1.06-2.82-3.18A1.94,1.94,0,0,1,88,67.2a3.2,3.2,0,0,1,1.81.55l-.32.7a3.52,3.52,0,0,0-1.24-.27c-.67,0-1,.32-1,.77,0,1.32,2.89,1.1,2.89,3.18C90.13,73.27,89.29,74.15,87.76,74.15Z"/><path class="cls-1" d="M93,74.15c-1.32,0-2-.84-2-2.54s.81-2.68,2.09-2.68a1.92,1.92,0,0,1,1.5.63l-.45.66a1.22,1.22,0,0,0-.85-.33c-.58,0-1,.54-1,1.59,0,1.22.33,1.7.91,1.7a1.52,1.52,0,0,0,1.06-.42l.39.66A2.31,2.31,0,0,1,93,74.15Z"/><path class="cls-1" d="M96.27,68.39c-.62,0-.77-.16-.77-.67s.16-.67.77-.67.76.15.76.67S96.88,68.39,96.27,68.39Zm-.65,5.66V69h1.29v5Z"/><path class="cls-1" d="M99.4,71.8v.07c0,.92.4,1.31,1.12,1.31a5.5,5.5,0,0,0,1.62-.29l.19.74a4.51,4.51,0,0,1-2.07.53c-1.31,0-2.18-.65-2.18-2.48s.87-2.75,2.27-2.75,2.14.72,2,2.87Zm1.71-.82c0-.8-.27-1.19-.81-1.19s-.86.49-.9,1.21h1.71Z"/><path class="cls-1" d="M107.76,74.05h-1.28c0-1,0-2,0-2.63,0-1.19-.23-1.46-.69-1.46a1.7,1.7,0,0,0-.93.41v3.68H103.6V69h1.06l.09.53a2.25,2.25,0,0,1,1.52-.64c1,0,1.53.64,1.53,2.27C107.8,71.82,107.76,73,107.76,74.05Z"/><path class="cls-1" d="M110.93,74.15c-1.32,0-2-.84-2-2.54s.81-2.68,2.09-2.68a1.92,1.92,0,0,1,1.5.63l-.45.66a1.22,1.22,0,0,0-.85-.33c-.58,0-1,.54-1,1.59,0,1.22.33,1.7.91,1.7a1.52,1.52,0,0,0,1.06-.42l.39.66A2.31,2.31,0,0,1,110.93,74.15Z"/><path class="cls-1" d="M114.47,71.8v.07c0,.92.4,1.31,1.12,1.31a5.5,5.5,0,0,0,1.62-.29l.19.74a4.51,4.51,0,0,1-2.07.53c-1.31,0-2.18-.65-2.18-2.48s.87-2.75,2.27-2.75,2.14.72,2,2.87Zm1.71-.82c0-.8-.27-1.19-.81-1.19s-.86.49-.9,1.21h1.71Z"/><path class="cls-1" d="M119.86,74.15a3.16,3.16,0,0,1-1.56-.41l.11-.67a5.31,5.31,0,0,0,1.22.17c.66,0,.91-.25.91-.55s-.16-.5-.89-.76c-1-.34-1.33-.75-1.33-1.48,0-.91.73-1.52,1.83-1.52a2.91,2.91,0,0,1,1.4.37l-.14.66a4.25,4.25,0,0,0-1-.15c-.52,0-.75.24-.75.52s.17.45.88.71c1,.33,1.35.8,1.35,1.52C121.9,73.47,121.15,74.15,119.86,74.15Z"/><path class="cls-1" d="M58.47,25.36c0,3.69-.85,6.45-4.18,9.06l-3.62-3.06A6.67,6.67,0,0,0,53.22,26h-2.9V17.79h8.15Z"/><rect class="cls-1" x="50.37" y="4.09" width="8.09" height="8.23"/><polygon class="cls-1" points="0 26.02 0 0 19.57 0 19.57 6.19 7.85 6.19 7.85 10.76 18.69 10.76 18.69 16.95 7.85 16.95 7.85 26.02 0 26.02"/><path class="cls-1" d="M37.81,26V15.85H30.22V26h-8V0h8V9.14h7.59V0h8.07V26Z"/><path class="cls-1" d="M63.05,26V0H74.18c5.13,0,7.34.55,8.88,1.58,2.29,1.52,3.4,4,3.4,7.23A8.69,8.69,0,0,1,83.18,16C81.37,17.25,79,17.88,75,17.88H71V26Zm11-14.23a5.51,5.51,0,0,0,3.32-.73A2.53,2.53,0,0,0,78.2,9a2.61,2.61,0,0,0-.81-2.06c-.59-.55-1.55-.74-3.21-.74H71v5.6Z"/></svg>