<?xml version="1.0" encoding="utf-8"?>
<!-- Generator: Adobe Illustrator 25.2.3, SVG Export Plug-In . SVG Version: 6.00 Build 0)  -->
<svg version="1.1" id="Ebene_2" xmlns="http://www.w3.org/2000/svg" xmlns:xlink="http://www.w3.org/1999/xlink" x="0px" y="0px"
	 viewBox="0 0 367.8 80.7" style="enable-background:new 0 0 367.8 80.7;" xml:space="preserve">
<style type="text/css">
	.st0{display:none;}
	.st1{display:inline;fill:#44443A;}
	.st2{font-family:'OpenSans-Extrabold';}
	.st3{font-size:41.7153px;}
	.st4{font-family:'OpenSans';}
	.st5{fill:none;}
	.st6{fill:#45443A;}
	.st7{fill:#C11824;}
	.st8{fill:#E84E1D;}
	.st9{fill:#A3A599;}
</style>
<g>
	<g id="_x3C_SchriftOpenSans_x3E_" class="st0">
		<text transform="matrix(1 0 0 1 110.2804 26.7746)" class="st1 st2 st3">open access</text>
		<text transform="matrix(1 0 0 1 110.2804 77.9592)" class="st1 st4 st3">büro berlin</text>
	</g>
	<rect id="_x3C_Hg_x3E_" x="-26.9" y="-25.2" class="st5" width="420.9" height="130.8"/>
	<g>
		<g id="_x3C_PfadeOpenSans_x3E_">
			<g>
				<path class="st6" d="M135.1,15.2c0,3.8-1,6.7-3,8.8c-2,2.1-4.9,3.2-8.5,3.2c-3.5,0-6.3-1.1-8.4-3.2c-2.1-2.2-3.1-5.1-3.1-8.8
					c0-3.8,1-6.7,3-8.8c2-2.1,4.9-3.1,8.5-3.1c2.3,0,4.3,0.5,6,1.4c1.7,1,3.1,2.3,4,4.1C134.6,10.7,135.1,12.8,135.1,15.2z
					 M120.1,15.2c0,2,0.3,3.5,0.8,4.5c0.5,1,1.4,1.6,2.7,1.6c1.2,0,2.1-0.5,2.6-1.6c0.5-1,0.8-2.5,0.8-4.5c0-2-0.3-3.5-0.8-4.5
					c-0.5-1-1.4-1.5-2.6-1.5c-1.2,0-2.1,0.5-2.6,1.5C120.4,11.7,120.1,13.2,120.1,15.2z"/>
				<path class="st6" d="M153.5,27.2c-1.2,0-2.2-0.2-3.1-0.6c-0.9-0.4-1.8-1.1-2.8-2.1h-0.4c0.2,1.6,0.4,2.6,0.4,3v9.3h-8V3.7h6.5
					l1.1,2.9h0.4c1.5-2.2,3.5-3.3,6.1-3.3c2.6,0,4.6,1.1,6,3.2c1.5,2.1,2.2,5,2.2,8.7c0,3.7-0.8,6.7-2.3,8.8
					C158.1,26.1,156.1,27.2,153.5,27.2z M150.8,9.5c-1.2,0-2,0.4-2.5,1.3c-0.5,0.8-0.7,2.1-0.8,3.7v0.6c0,2,0.3,3.4,0.8,4.3
					c0.5,0.9,1.4,1.3,2.5,1.3c1,0,1.8-0.4,2.2-1.3c0.5-0.9,0.7-2.3,0.7-4.3c0-2-0.2-3.4-0.7-4.3C152.6,10,151.9,9.5,150.8,9.5z"/>
				<path class="st6" d="M177.6,27.2c-3.8,0-6.8-1-9-3.1c-2.1-2-3.2-5-3.2-8.7c0-3.9,1-6.9,3-9c2-2.1,4.8-3.1,8.4-3.1
					c3.5,0,6.2,0.9,8.1,2.7c1.9,1.8,2.8,4.4,2.8,7.8v3.5h-14.2c0.1,1.3,0.5,2.3,1.4,3c0.9,0.7,2.1,1.1,3.6,1.1
					c1.4,0,2.7-0.1,3.9-0.4c1.2-0.3,2.4-0.7,3.8-1.4v5.7c-1.2,0.6-2.5,1.1-3.9,1.3C181,27.1,179.4,27.2,177.6,27.2z M177.1,8.7
					c-0.9,0-1.7,0.3-2.4,0.9c-0.6,0.6-1,1.5-1.1,2.8h6.8c0-1.1-0.3-2-0.9-2.7C178.9,9,178.1,8.7,177.1,8.7z"/>
				<path class="st6" d="M206.8,26.8V14.2c0-1.5-0.2-2.7-0.7-3.5c-0.4-0.8-1.2-1.2-2.1-1.2c-1.3,0-2.3,0.5-2.9,1.6
					c-0.6,1.1-0.9,2.9-0.9,5.5v10.1h-8V3.7h6l1,2.9h0.5c0.7-1.1,1.6-1.9,2.8-2.4c1.2-0.5,2.6-0.8,4.1-0.8c2.6,0,4.5,0.7,6,2.2
					c1.4,1.5,2.1,3.6,2.1,6.3v15H206.8z"/>
				<path class="st6" d="M246.1,26.8l-1.5-3.1h-0.2c-1.1,1.3-2.2,2.2-3.3,2.7c-1.1,0.5-2.6,0.7-4.3,0.7c-2.2,0-3.9-0.7-5.1-2
					c-1.2-1.3-1.9-3.1-1.9-5.5c0-2.5,0.9-4.3,2.6-5.5c1.7-1.2,4.2-1.9,7.4-2l3.8-0.1v-0.3c0-1.9-0.9-2.9-2.8-2.9
					c-1.7,0-3.8,0.6-6.4,1.7l-2.3-5.3c2.7-1.4,6.1-2.1,10.2-2.1c3,0,5.3,0.7,6.9,2.2c1.6,1.5,2.4,3.5,2.4,6.2v15.1H246.1z
					 M240.2,21.6c1,0,1.8-0.3,2.5-0.9c0.7-0.6,1-1.4,1-2.4v-1.8l-1.8,0.1c-2.6,0.1-3.9,1.1-3.9,2.9
					C237.9,20.9,238.6,21.6,240.2,21.6z"/>
				<path class="st6" d="M267.5,27.2c-3.8,0-6.6-1-8.6-3.1c-1.9-2-2.9-5-2.9-8.8c0-3.8,1.1-6.8,3.2-8.9c2.1-2.1,5.1-3.2,9-3.2
					c2.7,0,5.2,0.6,7.6,1.8l-2.3,5.9c-1-0.4-1.9-0.8-2.7-1c-0.8-0.3-1.7-0.4-2.5-0.4c-1.3,0-2.3,0.5-3,1.5c-0.7,1-1.1,2.4-1.1,4.3
					c0,3.7,1.4,5.5,4.1,5.5c2.3,0,4.6-0.7,6.7-2v6.3C272.9,26.5,270.4,27.2,267.5,27.2z"/>
				<path class="st6" d="M290,27.2c-3.8,0-6.6-1-8.6-3.1c-1.9-2-2.9-5-2.9-8.8c0-3.8,1.1-6.8,3.2-8.9c2.1-2.1,5.1-3.2,9-3.2
					c2.7,0,5.2,0.6,7.6,1.8l-2.3,5.9c-1-0.4-1.9-0.8-2.7-1c-0.8-0.3-1.7-0.4-2.5-0.4c-1.3,0-2.3,0.5-3,1.5c-0.7,1-1.1,2.4-1.1,4.3
					c0,3.7,1.4,5.5,4.1,5.5c2.3,0,4.6-0.7,6.7-2v6.3C295.3,26.5,292.9,27.2,290,27.2z"/>
				<path class="st6" d="M313.1,27.2c-3.8,0-6.8-1-9-3.1c-2.1-2-3.2-5-3.2-8.7c0-3.9,1-6.9,3-9c2-2.1,4.8-3.1,8.4-3.1
					c3.5,0,6.2,0.9,8.1,2.7c1.9,1.8,2.8,4.4,2.8,7.8v3.5H309c0.1,1.3,0.5,2.3,1.4,3c0.9,0.7,2.1,1.1,3.6,1.1c1.4,0,2.7-0.1,3.9-0.4
					c1.2-0.3,2.4-0.7,3.8-1.4v5.7c-1.2,0.6-2.5,1.1-3.9,1.3C316.5,27.1,315,27.2,313.1,27.2z M312.6,8.7c-0.9,0-1.7,0.3-2.4,0.9
					c-0.6,0.6-1,1.5-1.1,2.8h6.8c0-1.1-0.3-2-0.9-2.7C314.5,9,313.7,8.7,312.6,8.7z"/>
				<path class="st6" d="M345.6,19.7c0,2.5-0.8,4.3-2.5,5.6c-1.7,1.3-4.1,1.9-7.3,1.9c-1.7,0-3.2-0.1-4.5-0.3
					c-1.3-0.2-2.6-0.5-3.9-1v-6.4c1.2,0.5,2.6,1,4.1,1.3c1.5,0.4,2.8,0.5,3.9,0.5c1.7,0,2.6-0.4,2.6-1.2c0-0.4-0.2-0.8-0.7-1.1
					c-0.5-0.3-1.9-0.9-4.2-1.9c-2.1-0.9-3.6-1.9-4.4-3c-0.8-1.1-1.3-2.5-1.3-4.2c0-2.1,0.8-3.8,2.5-5c1.7-1.2,4-1.8,7-1.8
					c1.5,0,3,0.2,4.3,0.5c1.3,0.3,2.7,0.8,4.2,1.5l-2.2,5.1c-1.1-0.5-2.2-0.9-3.4-1.2c-1.2-0.3-2.1-0.5-2.9-0.5c-1.3,0-2,0.3-2,1
					c0,0.4,0.2,0.7,0.7,1c0.5,0.3,1.8,0.8,3.9,1.7c1.6,0.7,2.8,1.3,3.6,2c0.8,0.6,1.4,1.4,1.8,2.3C345.4,17.4,345.6,18.5,345.6,19.7
					z"/>
				<path class="st6" d="M367.8,19.7c0,2.5-0.8,4.3-2.5,5.6c-1.7,1.3-4.1,1.9-7.3,1.9c-1.7,0-3.2-0.1-4.5-0.3
					c-1.3-0.2-2.6-0.5-3.9-1v-6.4c1.2,0.5,2.6,1,4.1,1.3c1.5,0.4,2.8,0.5,3.9,0.5c1.7,0,2.6-0.4,2.6-1.2c0-0.4-0.2-0.8-0.7-1.1
					c-0.5-0.3-1.9-0.9-4.2-1.9c-2.1-0.9-3.6-1.9-4.4-3c-0.8-1.1-1.3-2.5-1.3-4.2c0-2.1,0.8-3.8,2.5-5c1.7-1.2,4-1.8,7-1.8
					c1.5,0,3,0.2,4.3,0.5c1.3,0.3,2.7,0.8,4.2,1.5l-2.2,5.1c-1.1-0.5-2.2-0.9-3.4-1.2c-1.2-0.3-2.1-0.5-2.9-0.5c-1.3,0-2,0.3-2,1
					c0,0.4,0.2,0.7,0.7,1c0.5,0.3,1.8,0.8,3.9,1.7c1.6,0.7,2.8,1.3,3.6,2c0.8,0.6,1.4,1.4,1.8,2.3C367.6,17.4,367.8,18.5,367.8,19.7
					z"/>
			</g>
			<g>
				<path class="st6" d="M124.3,55.3c2.9,0,5.2,1,6.8,3c1.6,2,2.4,4.8,2.4,8.5c0,3.7-0.8,6.5-2.5,8.5c-1.6,2-3.9,3-6.8,3
					c-1.5,0-2.8-0.3-4-0.8c-1.2-0.5-2.2-1.4-3-2.5H117l-0.7,2.9h-2.4V46.3h3.4V54c0,1.7-0.1,3.3-0.2,4.6h0.2
					C118.8,56.4,121.2,55.3,124.3,55.3z M123.8,58.1c-2.3,0-4,0.7-5,2c-1,1.3-1.5,3.6-1.5,6.7c0,3.1,0.5,5.4,1.6,6.7
					c1,1.4,2.7,2,5,2c2.1,0,3.6-0.8,4.6-2.3c1-1.5,1.5-3.7,1.5-6.5c0-2.9-0.5-5.1-1.5-6.5C127.5,58.8,125.9,58.1,123.8,58.1z"/>
				<path class="st6" d="M142.6,55.6v14.5c0,1.8,0.4,3.2,1.2,4.1c0.8,0.9,2.1,1.3,3.9,1.3c2.3,0,4-0.6,5.1-1.9s1.6-3.4,1.6-6.3V55.6
					h3.4V78h-2.8l-0.5-3h-0.2c-0.7,1.1-1.7,1.9-2.9,2.5c-1.2,0.6-2.6,0.9-4.2,0.9c-2.7,0-4.8-0.6-6.1-1.9c-1.4-1.3-2-3.4-2-6.2V55.6
					H142.6z M142.8,49.6c0-0.7,0.2-1.2,0.5-1.5c0.4-0.3,0.8-0.5,1.3-0.5c0.5,0,1,0.2,1.3,0.5c0.4,0.3,0.6,0.8,0.6,1.5
					c0,0.7-0.2,1.2-0.6,1.5c-0.4,0.3-0.8,0.5-1.3,0.5c-0.5,0-0.9-0.2-1.3-0.5C143,50.8,142.8,50.3,142.8,49.6z M150.6,49.6
					c0-0.7,0.2-1.2,0.5-1.5c0.4-0.3,0.8-0.5,1.3-0.5c0.5,0,0.9,0.2,1.3,0.5c0.4,0.3,0.6,0.8,0.6,1.5c0,0.7-0.2,1.2-0.6,1.5
					c-0.4,0.3-0.8,0.5-1.3,0.5c-0.5,0-0.9-0.2-1.3-0.5C150.8,50.8,150.6,50.3,150.6,49.6z"/>
				<path class="st6" d="M175.2,55.2c1,0,1.9,0.1,2.7,0.2l-0.5,3.1c-0.9-0.2-1.7-0.3-2.4-0.3c-1.8,0-3.4,0.7-4.6,2.2
					c-1.3,1.5-1.9,3.3-1.9,5.5v12H165V55.6h2.8l0.4,4.1h0.2c0.8-1.5,1.8-2.6,3-3.4C172.5,55.6,173.8,55.2,175.2,55.2z"/>
				<path class="st6" d="M201.3,66.8c0,3.6-0.9,6.5-2.8,8.5c-1.8,2-4.4,3.1-7.6,3.1c-2,0-3.8-0.5-5.3-1.4c-1.5-0.9-2.7-2.3-3.6-4
					c-0.8-1.8-1.3-3.8-1.3-6.2c0-3.6,0.9-6.5,2.7-8.5c1.8-2,4.3-3,7.6-3c3.1,0,5.6,1,7.4,3.1C200.4,60.4,201.3,63.2,201.3,66.8z
					 M184.3,66.8c0,2.9,0.6,5,1.7,6.5c1.1,1.5,2.8,2.2,5,2.2c2.2,0,3.9-0.7,5-2.2c1.1-1.5,1.7-3.7,1.7-6.5c0-2.8-0.6-5-1.7-6.5
					c-1.1-1.5-2.8-2.2-5.1-2.2c-2.2,0-3.9,0.7-5,2.2C184.9,61.7,184.3,63.9,184.3,66.8z"/>
				<path class="st6" d="M228.5,55.3c2.9,0,5.2,1,6.8,3c1.6,2,2.4,4.8,2.4,8.5c0,3.7-0.8,6.5-2.5,8.5c-1.6,2-3.9,3-6.8,3
					c-1.5,0-2.8-0.3-4-0.8c-1.2-0.5-2.2-1.4-3-2.5h-0.2l-0.7,2.9h-2.4V46.3h3.4V54c0,1.7-0.1,3.3-0.2,4.6h0.2
					C223,56.4,225.4,55.3,228.5,55.3z M228,58.1c-2.3,0-4,0.7-5,2c-1,1.3-1.5,3.6-1.5,6.7c0,3.1,0.5,5.4,1.6,6.7c1,1.4,2.7,2,5,2
					c2.1,0,3.6-0.8,4.6-2.3c1-1.5,1.5-3.7,1.5-6.5c0-2.9-0.5-5.1-1.5-6.5C231.7,58.8,230.1,58.1,228,58.1z"/>
				<path class="st6" d="M253.1,78.4c-3.3,0-5.9-1-7.8-3c-1.9-2-2.9-4.8-2.9-8.4c0-3.6,0.9-6.5,2.7-8.6c1.8-2.1,4.2-3.2,7.1-3.2
					c2.8,0,5,0.9,6.6,2.8c1.6,1.8,2.4,4.3,2.4,7.3v2.1h-15.4c0.1,2.6,0.7,4.6,2,6c1.3,1.4,3,2,5.3,2c2.4,0,4.8-0.5,7.1-1.5v3
					c-1.2,0.5-2.3,0.9-3.4,1.1C255.9,78.3,254.6,78.4,253.1,78.4z M252.2,58.1c-1.8,0-3.2,0.6-4.3,1.8c-1.1,1.2-1.7,2.8-1.9,4.8
					h11.7c0-2.1-0.5-3.8-1.4-4.9C255.3,58.6,253.9,58.1,252.2,58.1z"/>
				<path class="st6" d="M277.2,55.2c1,0,1.9,0.1,2.7,0.2l-0.5,3.1c-0.9-0.2-1.7-0.3-2.4-0.3c-1.8,0-3.4,0.7-4.6,2.2
					c-1.3,1.5-1.9,3.3-1.9,5.5v12h-3.4V55.6h2.8l0.4,4.1h0.2c0.8-1.5,1.8-2.6,3-3.4C274.6,55.6,275.8,55.2,277.2,55.2z"/>
				<path class="st6" d="M287.5,78h-3.4V46.3h3.4V78z"/>
				<path class="st6" d="M294.4,49.6c0-0.8,0.2-1.3,0.6-1.7c0.4-0.4,0.9-0.5,1.4-0.5c0.5,0,1,0.2,1.4,0.6c0.4,0.4,0.6,0.9,0.6,1.7
					c0,0.8-0.2,1.3-0.6,1.7c-0.4,0.4-0.9,0.6-1.4,0.6c-0.6,0-1-0.2-1.4-0.6C294.5,50.9,294.4,50.3,294.4,49.6z M298,78h-3.4V55.6
					h3.4V78z"/>
				<path class="st6" d="M320.5,78V63.5c0-1.8-0.4-3.2-1.2-4.1c-0.8-0.9-2.1-1.3-3.9-1.3c-2.3,0-4,0.6-5.1,1.9
					c-1.1,1.3-1.6,3.3-1.6,6.3V78h-3.4V55.6h2.7l0.5,3.1h0.2c0.7-1.1,1.7-2,2.9-2.6c1.2-0.6,2.6-0.9,4.2-0.9c2.7,0,4.7,0.6,6.1,1.9
					c1.4,1.3,2,3.4,2,6.2V78H320.5z"/>
			</g>
		</g>
		<g>
			<path class="st7" d="M41.5,0c0,0,40.2-1.3,41.5,0c0.5,1.2-0.7,40.1,0,40.1c0.7,0-41.5,0-41.5,0V0z"/>
			<path class="st6" d="M41.5,80.1c0,0,40.2,1.3,41.5,0c0.5-1.2-0.7-40.1,0-40.1c0.7,0-41.5,0-41.5,0V80.1z"/>
			<path class="st8" d="M41.5,0C41.5,0,1.3-1.3,0,0c-0.5,1.2,0.7,40.1,0,40.1c-0.7,0,41.5,0,41.5,0V0z"/>
			<path class="st9" d="M41.5,80.1c0,0-40.2,1.3-41.5,0c-0.5-1.2,0.7-40.1,0-40.1c-0.7,0,41.5,0,41.5,0V80.1z"/>
		</g>
	</g>
</g>
</svg>
