<svg id="Layer_1" data-name="Layer 1" xmlns="http://www.w3.org/2000/svg" viewBox="0 0 254.89 428.73"><defs><style>.cls-1{fill:#240f56;}</style></defs><path class="cls-1" d="M1.69,348.8H5.12l7,25.28h.46l7-25.28h3.43l-7.54,26.65H9.23Z"/><path class="cls-1" d="M27.73,372.71h6.62v-13.4H28.41v-2.74h8.91v16.14h6.16v2.74H27.73Zm5.4-21.78a2.66,2.66,0,1,1,.78,1.89A2.57,2.57,0,0,1,33.13,350.93Z"/><path class="cls-1" d="M54.48,361.44a2.32,2.32,0,0,0,1.16,2.09,10,10,0,0,0,4.25,1,9.63,9.63,0,0,1,5,1.58,4.52,4.52,0,0,1,1.73,3.83v.23a5.29,5.29,0,0,1-.55,2.45,5.55,5.55,0,0,1-1.52,1.85,6.94,6.94,0,0,1-2.36,1.16,10.83,10.83,0,0,1-3,.4,11,11,0,0,1-3.79-.59,7.76,7.76,0,0,1-2.62-1.56,6.39,6.39,0,0,1-1.58-2.21,7.22,7.22,0,0,1-.61-2.49l2.82-.69a5,5,0,0,0,1.67,3.49,5.79,5.79,0,0,0,4,1.31,6.12,6.12,0,0,0,3.37-.82,2.58,2.58,0,0,0,1.27-2.3,2.39,2.39,0,0,0-1.25-2.29,10.72,10.72,0,0,0-4.07-.87,9.52,9.52,0,0,1-5-1.52,4.4,4.4,0,0,1-1.75-3.77v-.23a4.66,4.66,0,0,1,.57-2.34,5.21,5.21,0,0,1,1.54-1.7,7.1,7.1,0,0,1,2.19-1,9.29,9.29,0,0,1,2.55-.35,9.55,9.55,0,0,1,3.27.52,7.35,7.35,0,0,1,2.36,1.33,5.73,5.73,0,0,1,1.47,1.88,7.78,7.78,0,0,1,.67,2.14l-2.82.68a4,4,0,0,0-1.47-2.85,5.12,5.12,0,0,0-3.33-1,7.13,7.13,0,0,0-1.54.17,4.65,4.65,0,0,0-1.31.51,2.93,2.93,0,0,0-.92.86A2.17,2.17,0,0,0,54.48,361.44Z"/><path class="cls-1" d="M87.33,356.57h3v18.88h-3V372h-.46a7.79,7.79,0,0,1-2.39,2.89A6.32,6.32,0,0,1,80.71,376a7.72,7.72,0,0,1-2.88-.52,5.81,5.81,0,0,1-2.24-1.54,7,7,0,0,1-1.45-2.55,11.11,11.11,0,0,1-.51-3.54V356.57h3v10.88a6.43,6.43,0,0,0,1.21,4.34,4.73,4.73,0,0,0,3.73,1.37,5.23,5.23,0,0,0,4.25-1.84,7.44,7.44,0,0,0,1.54-4.93Z"/><path class="cls-1" d="M110.85,372.25h-.46a6.06,6.06,0,0,1-2.53,2.81,6.78,6.78,0,0,1-3.4.92,9.39,9.39,0,0,1-3.47-.63,8,8,0,0,1-2.79-1.86,9,9,0,0,1-1.89-3,11.72,11.72,0,0,1-.68-4.15v-.61a11.57,11.57,0,0,1,.68-4.11,9,9,0,0,1,1.89-3,8.14,8.14,0,0,1,2.79-1.88,9,9,0,0,1,3.39-.65,7.28,7.28,0,0,1,3.52.86,5.94,5.94,0,0,1,2.49,2.65h.46v-3h3v15c0,.76.34,1.15,1,1.15h1v2.74h-2a2.81,2.81,0,0,1-2.11-.84,2.91,2.91,0,0,1-.82-2.13Zm-6.09.91a6,6,0,0,0,2.46-.49,5.47,5.47,0,0,0,1.92-1.41,6.7,6.7,0,0,0,1.25-2.19,8.21,8.21,0,0,0,.46-2.84v-.45a8.1,8.1,0,0,0-.46-2.8,6.41,6.41,0,0,0-1.27-2.19,6,6,0,0,0-1.94-1.43,6.07,6.07,0,0,0-4.85,0,5.89,5.89,0,0,0-1.93,1.38,6.38,6.38,0,0,0-1.27,2.17,8.18,8.18,0,0,0-.46,2.8v.61a7.07,7.07,0,0,0,1.7,5A5.71,5.71,0,0,0,104.76,373.16Z"/><path class="cls-1" d="M120.44,372.71h6.85V351.54h-6.62V348.8h9.59v23.91h6.85v2.74H120.44Z"/><path class="cls-1" d="M144.19,372.71h6.63v-13.4h-5.94v-2.74h8.91v16.14H160v2.74H144.19Zm5.41-21.78a2.66,2.66,0,1,1,.78,1.89A2.57,2.57,0,0,1,149.6,350.93Z"/><path class="cls-1" d="M183.63,372.71v2.74H167.18v-4.72l13.48-11v-.45H167.41v-2.74h15.76v4.56l-13.55,11.12v.46Z"/><path class="cls-1" d="M190.78,372.71h6.62v-13.4h-5.93v-2.74h8.9v16.14h6.17v2.74H190.78Zm5.41-21.78a2.67,2.67,0,0,1,4.55-1.88,2.67,2.67,0,0,1-1.89,4.55,2.66,2.66,0,0,1-2.66-2.67Z"/><path class="cls-1" d="M216.59,375.45h-3V356.57h3v3.19H217a6.21,6.21,0,0,1,6.09-3.73,6.87,6.87,0,0,1,5.22,2c1.29,1.36,1.94,3.39,1.94,6.11v11.27h-3V364.79a6.45,6.45,0,0,0-1.33-4.45,4.62,4.62,0,0,0-3.62-1.49,5.23,5.23,0,0,0-4.24,1.85,7.42,7.42,0,0,0-1.54,4.93Z"/><path class="cls-1" d="M251.26,372.55h-.46a6.06,6.06,0,0,1-2.49,2.57,7.11,7.11,0,0,1-3.44.86,9.89,9.89,0,0,1-3.58-.65,8.54,8.54,0,0,1-5-4.89,10.87,10.87,0,0,1-.74-4.13v-.61a10.43,10.43,0,0,1,.76-4.09,9.39,9.39,0,0,1,2-3.05,8.52,8.52,0,0,1,2.93-1.88,9.66,9.66,0,0,1,3.5-.65,7,7,0,0,1,3.6.9,6.05,6.05,0,0,1,2.41,2.61h.46v-3h3v23.52a2.91,2.91,0,0,1-.82,2.13,2.81,2.81,0,0,1-2.11.84H239v-2.74h11.23c.69,0,1-.38,1-1.14Zm-6.32.61a6.17,6.17,0,0,0,2.48-.49,6.06,6.06,0,0,0,2-1.41,6.74,6.74,0,0,0,1.35-2.19,7.76,7.76,0,0,0,.49-2.84v-.45a7.66,7.66,0,0,0-.49-2.8,6.74,6.74,0,0,0-1.35-2.19,6.4,6.4,0,0,0-2-1.43,6.06,6.06,0,0,0-2.46-.51,6.26,6.26,0,0,0-2.49.5,6.06,6.06,0,0,0-2,1.4,6.64,6.64,0,0,0-1.33,2.17,7.76,7.76,0,0,0-.47,2.78v.61a8,8,0,0,0,.47,2.86,6.45,6.45,0,0,0,1.33,2.15,6,6,0,0,0,2,1.37A6.6,6.6,0,0,0,244.94,373.16Z"/><path class="cls-1" d="M3,404.83q0-5.18,2.47-8a8.65,8.65,0,0,1,6.89-2.86,8.65,8.65,0,0,1,6.89,2.86q2.48,2.85,2.47,8v5.94q0,5.33-2.47,8.1a8.73,8.73,0,0,1-6.89,2.78,8.73,8.73,0,0,1-6.89-2.78Q2.95,416.1,3,410.77Zm9.36,13.85a5.32,5.32,0,0,0,4.62-2.11,10.1,10.1,0,0,0,1.55-6v-5.48a10.21,10.21,0,0,0-1.55-5.9,5.21,5.21,0,0,0-4.62-2.25,5.21,5.21,0,0,0-4.62,2.25,10.21,10.21,0,0,0-1.55,5.9v5.48a10.1,10.1,0,0,0,1.55,6A5.32,5.32,0,0,0,12.31,418.68Z"/><path class="cls-1" d="M29.55,428.73h-3V402.24h3v3H30a6.57,6.57,0,0,1,2.74-2.61,8.35,8.35,0,0,1,3.81-.89,8.6,8.6,0,0,1,3.31.64,8.48,8.48,0,0,1,2.76,1.87,8.75,8.75,0,0,1,1.9,3,11,11,0,0,1,.7,4.07v.76a11.35,11.35,0,0,1-.68,4.11,8.68,8.68,0,0,1-1.89,3A7.81,7.81,0,0,1,39.87,421a9.19,9.19,0,0,1-3.39.63,8.72,8.72,0,0,1-1.87-.21,7.57,7.57,0,0,1-1.8-.64,8.13,8.13,0,0,1-1.58-1.07,5.58,5.58,0,0,1-1.22-1.5h-.46Zm6.32-9.89a6.42,6.42,0,0,0,2.51-.48,6.09,6.09,0,0,0,2-1.35,5.93,5.93,0,0,0,1.33-2.13,7.87,7.87,0,0,0,.48-2.82v-.76a7.54,7.54,0,0,0-.48-2.76,6.3,6.3,0,0,0-1.33-2.13,5.93,5.93,0,0,0-2-1.39,6.26,6.26,0,0,0-2.49-.5,6,6,0,0,0-2.47.52,6.17,6.17,0,0,0-2,1.43,6.59,6.59,0,0,0-1.35,2.18,7.7,7.7,0,0,0-.5,2.8v.46a7.75,7.75,0,0,0,.5,2.83,6.74,6.74,0,0,0,1.35,2.19,6,6,0,0,0,2,1.41A6.13,6.13,0,0,0,35.87,418.84Z"/><path class="cls-1" d="M52.73,412.59a6.71,6.71,0,0,0,1.75,4.53,6,6,0,0,0,4.57,1.72,8,8,0,0,0,2.32-.31,5.15,5.15,0,0,0,1.69-.84,4.47,4.47,0,0,0,1.15-1.23,7.17,7.17,0,0,0,.7-1.51l2.82.77a8.36,8.36,0,0,1-3,4.28A9.32,9.32,0,0,1,59,421.65a9.58,9.58,0,0,1-3.71-.7,8.36,8.36,0,0,1-2.91-2,9.19,9.19,0,0,1-1.9-3.08,11,11,0,0,1-.69-4V411a9.64,9.64,0,0,1,.71-3.7,8.8,8.8,0,0,1,2-2.95,9.17,9.17,0,0,1,3-1.94,9.45,9.45,0,0,1,3.67-.7,8.76,8.76,0,0,1,4,.85,9,9,0,0,1,2.78,2.12,8.12,8.12,0,0,1,1.6,2.74,8.24,8.24,0,0,1,.52,2.74v2.43Zm6.32-8.07a6.84,6.84,0,0,0-2.34.4,6,6,0,0,0-1.9,1.13,6,6,0,0,0-1.34,1.69,6.27,6.27,0,0,0-.66,2.11H65A5.42,5.42,0,0,0,63.06,406a5.89,5.89,0,0,0-1.86-1.06A6.1,6.1,0,0,0,59.05,404.52Z"/><path class="cls-1" d="M76.83,421.12h-3V402.24h3v3.2h.45a6.19,6.19,0,0,1,6.09-3.73,6.91,6.91,0,0,1,5.22,2q1.93,2,1.94,6.11v11.27h-3V410.46A6.52,6.52,0,0,0,86.23,406a4.63,4.63,0,0,0-3.62-1.49,5.22,5.22,0,0,0-4.24,1.85,7.42,7.42,0,0,0-1.54,4.93Z"/><path class="cls-1" d="M134.49,414.5H123.07l-1.94,6.62H117.7l8.07-26.64h6l8.06,26.64h-3.42Zm-5.94-18.65L124,411.53h9.66L129,395.85Z"/><path class="cls-1" d="M161.4,414.42a9.69,9.69,0,0,1-1.05,2.89,8.26,8.26,0,0,1-1.88,2.31,8.48,8.48,0,0,1-2.67,1.5,10,10,0,0,1-3.38.53,10.86,10.86,0,0,1-3.75-.64,9.21,9.21,0,0,1-3.11-1.89,9,9,0,0,1-2.11-3,10.26,10.26,0,0,1-.78-4.12v-.45a10.39,10.39,0,0,1,.78-4.11,9.21,9.21,0,0,1,2.11-3.09,9.67,9.67,0,0,1,3.11-1.94,10.44,10.44,0,0,1,3.75-.68,10.12,10.12,0,0,1,3.31.53,8.76,8.76,0,0,1,2.68,1.5,8.16,8.16,0,0,1,1.9,2.31,9,9,0,0,1,1,2.89l-3,.68a6.09,6.09,0,0,0-.55-1.92,5.28,5.28,0,0,0-1.18-1.63,5.51,5.51,0,0,0-1.81-1.13,6.69,6.69,0,0,0-2.47-.42,6.53,6.53,0,0,0-4.68,2,6.72,6.72,0,0,0-1.43,2.23,7.6,7.6,0,0,0-.51,2.82V412a7.7,7.7,0,0,0,.51,2.88,6,6,0,0,0,1.43,2.15,6.55,6.55,0,0,0,2.13,1.35,7.11,7.11,0,0,0,2.63.48,6.38,6.38,0,0,0,2.45-.44,5.84,5.84,0,0,0,1.79-1.14,5.53,5.53,0,0,0,1.18-1.62,6.76,6.76,0,0,0,.59-1.9Z"/><path class="cls-1" d="M184.69,414.42a9.67,9.67,0,0,1-1,2.89,8.17,8.17,0,0,1-4.55,3.81,10.13,10.13,0,0,1-3.39.53A10.86,10.86,0,0,1,172,421a9.17,9.17,0,0,1-3.1-1.89,8.87,8.87,0,0,1-2.11-3A10.26,10.26,0,0,1,166,412v-.45a10.39,10.39,0,0,1,.78-4.11,9.07,9.07,0,0,1,2.11-3.09,9.62,9.62,0,0,1,3.1-1.94,10.44,10.44,0,0,1,3.75-.68,10.08,10.08,0,0,1,3.31.53,8.65,8.65,0,0,1,2.68,1.5,8.19,8.19,0,0,1,1.91,2.31,9.19,9.19,0,0,1,1,2.89l-3,.68a6.11,6.11,0,0,0-.56-1.92,5.42,5.42,0,0,0-1.17-1.63,5.62,5.62,0,0,0-1.81-1.13,6.75,6.75,0,0,0-2.48-.42,6.53,6.53,0,0,0-4.68,2,6.88,6.88,0,0,0-1.43,2.23,7.6,7.6,0,0,0-.51,2.82V412a7.7,7.7,0,0,0,.51,2.88A6.14,6.14,0,0,0,171,417a6.55,6.55,0,0,0,2.13,1.35,7.11,7.11,0,0,0,2.63.48,6.31,6.31,0,0,0,2.45-.44,5.72,5.72,0,0,0,1.79-1.14,5.36,5.36,0,0,0,1.18-1.62,6.76,6.76,0,0,0,.59-1.9Z"/><path class="cls-1" d="M192.49,412.59a6.67,6.67,0,0,0,1.76,4.53,6,6,0,0,0,4.56,1.72,8,8,0,0,0,2.32-.31,5.3,5.3,0,0,0,1.7-.84,4.43,4.43,0,0,0,1.14-1.23,6.7,6.7,0,0,0,.7-1.51l2.82.77a8.36,8.36,0,0,1-3,4.28,9.29,9.29,0,0,1-5.8,1.65A9.51,9.51,0,0,1,195,421a8.5,8.5,0,0,1-2.92-2,9.35,9.35,0,0,1-1.9-3.08,11,11,0,0,1-.68-4V411a9.63,9.63,0,0,1,.7-3.7,8.8,8.8,0,0,1,2-2.95,9.28,9.28,0,0,1,2.95-1.94,9.45,9.45,0,0,1,3.67-.7,8.83,8.83,0,0,1,4,.85,9.14,9.14,0,0,1,2.78,2.12,8.69,8.69,0,0,1,2.11,5.48v2.43Zm6.32-8.07a6.93,6.93,0,0,0-2.34.4,6,6,0,0,0-1.9,1.13,5.76,5.76,0,0,0-1.33,1.69,6.07,6.07,0,0,0-.67,2.11h12.18a5.46,5.46,0,0,0-1.92-3.88,6.48,6.48,0,0,0-4-1.45Z"/><path class="cls-1" d="M217.54,407.11a2.34,2.34,0,0,0,1.16,2.1,10.15,10.15,0,0,0,4.24,1,9.58,9.58,0,0,1,5.05,1.58,4.51,4.51,0,0,1,1.73,3.82v.23a5.36,5.36,0,0,1-.55,2.46,5.53,5.53,0,0,1-1.53,1.84,6.63,6.63,0,0,1-2.35,1.16,10.83,10.83,0,0,1-3,.4,10.7,10.7,0,0,1-3.79-.59,7.67,7.67,0,0,1-2.62-1.56,6.39,6.39,0,0,1-1.58-2.21,7.22,7.22,0,0,1-.61-2.49l2.81-.68a5.08,5.08,0,0,0,1.68,3.48,5.79,5.79,0,0,0,4,1.31,6.14,6.14,0,0,0,3.37-.82,2.57,2.57,0,0,0,1.27-2.3,2.39,2.39,0,0,0-1.26-2.28,10.41,10.41,0,0,0-4.07-.88,9.48,9.48,0,0,1-5-1.52,4.39,4.39,0,0,1-1.75-3.77v-.23a4.69,4.69,0,0,1,.57-2.34,5.08,5.08,0,0,1,1.54-1.69,7.12,7.12,0,0,1,2.19-1,9.29,9.29,0,0,1,2.55-.34,9.6,9.6,0,0,1,3.27.51,7.54,7.54,0,0,1,2.36,1.33,6,6,0,0,1,1.47,1.89,7.27,7.27,0,0,1,.66,2.13l-2.81.68A4.06,4.06,0,0,0,225,405.4a5.17,5.17,0,0,0-3.33-1,7.06,7.06,0,0,0-1.54.17,4.72,4.72,0,0,0-1.32.52,3,3,0,0,0-.91.85A2.13,2.13,0,0,0,217.54,407.11Z"/><path class="cls-1" d="M240.83,407.11a2.34,2.34,0,0,0,1.16,2.1,10.2,10.2,0,0,0,4.25,1,9.54,9.54,0,0,1,5,1.58,4.51,4.51,0,0,1,1.73,3.82v.23a5.36,5.36,0,0,1-.55,2.46,5.5,5.5,0,0,1-1.52,1.84,6.77,6.77,0,0,1-2.36,1.16,12.1,12.1,0,0,1-6.82-.19,7.76,7.76,0,0,1-2.62-1.56,6.39,6.39,0,0,1-1.58-2.21,7.22,7.22,0,0,1-.61-2.49l2.82-.68a5,5,0,0,0,1.67,3.48,5.79,5.79,0,0,0,4,1.31,6.14,6.14,0,0,0,3.37-.82,2.57,2.57,0,0,0,1.27-2.3,2.38,2.38,0,0,0-1.25-2.28,10.51,10.51,0,0,0-4.08-.88,9.51,9.51,0,0,1-5-1.52,4.39,4.39,0,0,1-1.75-3.77v-.23a4.69,4.69,0,0,1,.57-2.34,5.18,5.18,0,0,1,1.54-1.69,7.12,7.12,0,0,1,2.19-1,9.29,9.29,0,0,1,2.55-.34,9.56,9.56,0,0,1,3.27.51,7.54,7.54,0,0,1,2.36,1.33,5.76,5.76,0,0,1,1.47,1.89,7.61,7.61,0,0,1,.67,2.13l-2.82.68a4.06,4.06,0,0,0-1.47-2.85,5.17,5.17,0,0,0-3.33-1,7.13,7.13,0,0,0-1.54.17,4.66,4.66,0,0,0-1.31.52,2.9,2.9,0,0,0-.92.85A2.21,2.21,0,0,0,240.83,407.11Z"/><path class="cls-1" d="M.66.92H18.91L56,125.5h2.44L95.55.92H113.8L73.65,142.85H40.81Z"/><path class="cls-1" d="M7.35,219.07q0-27.57,13.18-42.78t36.7-15.21q23.52,0,36.7,15.21t13.18,42.78V250.7q0,28.38-13.18,43.18t-36.7,14.8q-23.52,0-36.7-14.8T7.35,250.7Zm49.88,73.8q16.43,0,24.64-11.25t8.21-32.14v-29.2q0-19.46-8.21-31.42t-24.64-12q-16.42,0-24.63,12t-8.22,31.42v29.2q0,20.88,8.22,32.14T57.23,292.87Z"/><path class="cls-1" d="M222.64,273.57H161.82l-10.34,35.28H133.23l43-146.32h32l43,146.32H233Zm-32.63-94-23.53,78.22H218l-23.53-78.22Z"/><path class="cls-1" d="M214.69,50a25,25,0,0,0,0-50h-45a25,25,0,0,0,0,50h15v92.94l43.5-.19V132.5h-28.5v-12h28.5v-15h-28.5V50Zm-55-25a10,10,0,0,1,10-10h45a10,10,0,0,1,0,20h-45A10,10,0,0,1,159.69,25Z"/></svg>