<?xml version="1.0" encoding="utf-8"?>
<!-- Generator: Adobe Illustrator 25.2.3, SVG Export Plug-In . SVG Version: 6.00 Build 0)  -->
<svg version="1.1" xmlns="http://www.w3.org/2000/svg" xmlns:xlink="http://www.w3.org/1999/xlink" x="0px" y="0px"
	 viewBox="0 0 254.9 326" style="enable-background:new 0 0 254.9 326;" xml:space="preserve">
<style type="text/css">
	.st0{display:none;}
	.st1{display:inline;}
	.st2{fill:#C9C9C9;}
	.st3{fill:#F9BB94;}
	.st4{fill:#240F56;}
</style>
<g id="Layer_2" class="st0">
</g>
<g id="Layer_1">
	<g>
		<g>
			<path class="st4" d="M2.2,9.5h18.2l37.1,124.6h2.4L97,9.5h18.2L75.2,151.4H42.3L2.2,9.5z"/>
		</g>
		<g>
			<path class="st4" d="M8.9,227.7c0-18.4,4.4-32.6,13.2-42.8c8.8-10.1,21-15.2,36.7-15.2c15.7,0,27.9,5.1,36.7,15.2
				c8.8,10.1,13.2,24.4,13.2,42.8v31.6c0,18.9-4.4,33.3-13.2,43.2c-8.8,9.9-21,14.8-36.7,14.8c-15.7,0-27.9-4.9-36.7-14.8
				c-8.8-9.9-13.2-24.3-13.2-43.2V227.7z M58.7,301.5c10.9,0,19.2-3.8,24.6-11.3c5.5-7.5,8.2-18.2,8.2-32.1v-29.2
				c0-13-2.7-23.5-8.2-31.4c-5.5-8-13.7-12-24.6-12s-19.2,4-24.6,12c-5.5,8-8.2,18.5-8.2,31.4v29.2c0,13.9,2.7,24.6,8.2,32.1
				C39.6,297.7,47.8,301.5,58.7,301.5z"/>
		</g>
		<g>
			<path class="st4" d="M224.1,282.2h-60.8L153,317.4h-18.2l43-146.3h32l43,146.3h-18.2L224.1,282.2z M191.5,188.1L168,266.4h51.5
				l-23.5-78.2H191.5z"/>
		</g>
		<path class="st4" d="M216.2,58.6c13.8,0,25-11.2,25-25s-11.2-25-25-25h-45c-13.8,0-25,11.2-25,25s11.2,25,25,25h15v92.9l43.5-0.2
			v-14.7h-28.5v-12h28.5v-15h-28.5V58.6H216.2z M161.2,33.6c0-5.5,4.5-10,10-10h45c5.5,0,10,4.5,10,10s-4.5,10-10,10h-45
			C165.7,43.6,161.2,39.1,161.2,33.6z"/>
	</g>
</g>
</svg>
