<?xml version="1.0" encoding="UTF-8"?>
<svg xmlns="http://www.w3.org/2000/svg" xmlns:xlink="http://www.w3.org/1999/xlink" width="728pt" height="289pt" viewBox="0 0 728 289" version="1.1">
<g id="surface1">
<path style=" stroke:none;fill-rule:nonzero;fill:rgb(3.392029%,3.665161%,3.944397%);fill-opacity:1;" d="M 515.652344 152.132813 L 405.957031 289 L 728 152.132813 L 515.652344 152.132813 "/>
<path style=" stroke:none;fill-rule:nonzero;fill:rgb(3.392029%,3.665161%,3.944397%);fill-opacity:1;" d="M 315.382813 152.132813 L 398.914063 278.9375 L 500.558594 152.132813 L 315.382813 152.132813 "/>
<path style=" stroke:none;fill-rule:nonzero;fill:rgb(3.392029%,3.665161%,3.944397%);fill-opacity:1;" d="M 524.710938 141.0625 L 714.917969 141.0625 L 604.214844 42.4375 L 524.710938 141.0625 "/>
<path style=" stroke:none;fill-rule:nonzero;fill:rgb(3.392029%,3.665161%,3.944397%);fill-opacity:1;" d="M 4.4375 28.175781 L 4.4375 0.980469 L 10.019531 0.980469 L 10.019531 28.417969 C 10.019531 35.945313 14.878906 40.074219 21.917969 40.074219 C 28.960938 40.074219 33.816406 36.1875 33.816406 28.417969 L 33.816406 0.980469 L 39.402344 0.980469 L 39.402344 28.175781 C 39.402344 38.859375 32.117188 45.414063 21.917969 45.414063 C 11.722656 45.414063 4.4375 39.101563 4.4375 28.175781 "/>
<path style=" stroke:none;fill-rule:nonzero;fill:rgb(3.392029%,3.665161%,3.944397%);fill-opacity:1;" d="M 73.152344 25.746094 L 68.296875 25.746094 L 68.296875 44.929688 L 62.710938 44.929688 L 62.710938 0.980469 L 75.824219 0.980469 C 84.320313 0.980469 89.90625 5.835938 89.90625 13.363281 C 89.90625 19.675781 86.019531 24.046875 79.464844 25.261719 L 94.761719 44.929688 L 87.964844 44.929688 Z M 75.339844 20.648438 C 81.164063 20.648438 84.078125 17.976563 84.078125 13.363281 C 84.078125 8.75 81.164063 6.078125 75.339844 6.078125 L 68.296875 6.078125 L 68.296875 20.648438 L 75.339844 20.648438 "/>
<path style=" stroke:none;fill-rule:nonzero;fill:rgb(3.392029%,3.665161%,3.944397%);fill-opacity:1;" d="M 113.945313 0.980469 L 128.515625 0.980469 C 137.011719 0.980469 141.382813 6.320313 141.382813 12.394531 C 141.382813 16.761719 139.683594 19.675781 136.769531 21.621094 C 141.140625 23.320313 144.296875 26.71875 144.296875 32.546875 C 144.296875 40.558594 138.226563 44.929688 129 44.929688 L 113.703125 44.929688 L 113.703125 0.980469 Z M 128.515625 19.921875 C 133.128906 19.921875 136.039063 17.007813 136.039063 13.121094 C 136.039063 9.480469 133.371094 6.320313 128.515625 6.320313 L 119.53125 6.320313 L 119.53125 20.164063 L 128.515625 20.164063 Z M 129.972656 39.832031 C 135.796875 39.832031 138.710938 36.675781 138.710938 32.304688 C 138.710938 27.933594 135.796875 24.777344 129.972656 24.777344 L 119.53125 24.777344 L 119.53125 39.832031 L 129.972656 39.832031 "/>
<path style=" stroke:none;fill-rule:nonzero;fill:rgb(3.392029%,3.665161%,3.944397%);fill-opacity:1;" d="M 179.261719 0.980469 L 196.257813 0.980469 L 196.257813 44.929688 L 190.675781 44.929688 L 190.675781 33.519531 L 169.550781 33.519531 L 163.964844 44.929688 L 157.894531 44.929688 Z M 171.976563 28.175781 L 190.675781 28.175781 L 190.675781 6.320313 L 182.417969 6.320313 L 171.976563 28.175781 "/>
<path style=" stroke:none;fill-rule:nonzero;fill:rgb(3.392029%,3.665161%,3.944397%);fill-opacity:1;" d="M 220.054688 0.496094 L 220.054688 44.929688 L 225.640625 44.929688 L 225.640625 12.878906 L 251.378906 36.1875 L 251.378906 44.929688 L 256.960938 44.929688 L 256.960938 0.980469 L 251.378906 0.980469 L 251.378906 28.902344 L 220.054688 0.496094 "/>
<path style=" stroke:none;fill-rule:nonzero;fill:rgb(3.392029%,3.665161%,3.944397%);fill-opacity:1;" d="M 0.792969 84.992188 C 0.792969 72.125 10.75 62.410156 23.375 62.410156 C 28.960938 62.410156 33.816406 64.113281 37.703125 67.511719 L 34.300781 71.882813 C 31.386719 69.453125 27.746094 67.753906 23.375 67.753906 C 13.664063 67.753906 6.621094 75.28125 6.621094 84.75 C 6.621094 94.222656 13.664063 101.746094 23.375 101.746094 C 27.746094 101.746094 31.386719 100.046875 34.300781 97.621094 L 37.703125 101.992188 C 33.816406 105.390625 28.960938 107.089844 23.375 107.089844 C 10.507813 107.332031 0.792969 97.621094 0.792969 84.992188 "/>
<path style=" stroke:none;fill-rule:nonzero;fill:rgb(3.392029%,3.665161%,3.944397%);fill-opacity:1;" d="M 54.457031 84.992188 C 54.457031 72.125 64.410156 62.410156 77.035156 62.410156 C 89.664063 62.410156 99.617188 72.125 99.617188 84.992188 C 99.617188 97.863281 89.664063 107.574219 77.035156 107.574219 C 64.410156 107.574219 54.457031 97.621094 54.457031 84.992188 M 93.550781 84.992188 C 93.550781 75.28125 86.507813 67.996094 76.796875 67.996094 C 67.082031 67.996094 60.039063 75.523438 60.039063 84.992188 C 60.039063 94.464844 67.082031 101.992188 76.796875 101.992188 C 86.507813 101.992188 93.550781 94.464844 93.550781 84.992188 "/>
<path style=" stroke:none;fill-rule:nonzero;fill:rgb(3.392029%,3.665161%,3.944397%);fill-opacity:1;" d="M 120.015625 62.410156 L 141.382813 85.964844 L 162.992188 62.410156 L 162.992188 106.847656 L 157.164063 106.847656 L 157.164063 76.253906 L 141.382813 93.976563 L 125.601563 76.253906 L 125.601563 106.847656 L 120.015625 106.847656 L 120.015625 62.410156 "/>
<path style=" stroke:none;fill-rule:nonzero;fill:rgb(3.392029%,3.665161%,3.944397%);fill-opacity:1;" d="M 186.546875 62.898438 L 198.929688 62.898438 C 208.15625 62.898438 214.226563 67.996094 214.226563 76.253906 C 214.226563 84.507813 208.15625 89.605469 198.929688 89.605469 L 192.132813 89.605469 L 192.132813 106.605469 L 186.546875 106.605469 Z M 198.929688 84.507813 C 205.242188 84.507813 208.640625 81.59375 208.640625 76.253906 C 208.640625 71.152344 205.242188 67.996094 198.929688 67.996094 L 192.375 67.996094 L 192.375 84.507813 L 198.929688 84.507813 "/>
<path style=" stroke:none;fill-rule:nonzero;fill:rgb(3.392029%,3.665161%,3.944397%);fill-opacity:1;" d="M 233.652344 62.898438 L 239.480469 62.898438 L 239.480469 101.503906 L 257.933594 101.503906 L 257.933594 106.847656 L 233.652344 106.847656 L 233.652344 62.898438 "/>
<path style=" stroke:none;fill-rule:nonzero;fill:rgb(3.392029%,3.665161%,3.944397%);fill-opacity:1;" d="M 276.871094 62.898438 L 302.367188 62.898438 L 302.367188 68.484375 L 282.699219 68.484375 L 282.699219 81.59375 L 298.726563 81.59375 L 298.726563 87.179688 L 282.699219 87.179688 L 282.699219 101.503906 L 302.367188 101.503906 L 302.367188 106.847656 L 276.871094 106.847656 L 276.871094 62.898438 "/>
<path style=" stroke:none;fill-rule:nonzero;fill:rgb(3.392029%,3.665161%,3.944397%);fill-opacity:1;" d="M 336.847656 86.207031 L 325.679688 106.847656 L 319.609375 106.847656 L 333.449219 81.109375 L 320.335938 62.898438 L 326.894531 62.898438 L 341.21875 82.808594 L 351.660156 62.898438 L 357.730469 62.898438 L 344.617188 87.664063 L 358.457031 106.847656 L 351.660156 106.847656 L 336.847656 86.207031 "/>
<path style=" stroke:none;fill-rule:nonzero;fill:rgb(3.392029%,3.665161%,3.944397%);fill-opacity:1;" d="M 378.125 106.847656 L 378.125 62.898438 L 383.710938 62.898438 L 383.710938 106.847656 Z M 378.125 106.847656 "/>
<path style=" stroke:none;fill-rule:nonzero;fill:rgb(3.392029%,3.665161%,3.944397%);fill-opacity:1;" d="M 415.761719 68.484375 L 403.136719 68.484375 L 403.136719 62.898438 L 433.730469 62.898438 L 433.730469 68.484375 L 421.347656 68.484375 L 421.347656 106.847656 L 415.761719 106.847656 L 415.761719 68.484375 "/>
<path style=" stroke:none;fill-rule:nonzero;fill:rgb(3.392029%,3.665161%,3.944397%);fill-opacity:1;" d="M 480.109375 62.898438 L 467.722656 82.808594 L 455.339844 62.898438 L 448.785156 62.898438 L 464.8125 88.152344 L 464.8125 106.847656 L 470.394531 106.847656 L 470.394531 88.152344 L 486.664063 62.898438 L 480.109375 62.898438 "/>
<path style=" stroke:none;fill-rule:nonzero;fill:rgb(3.392029%,3.665161%,3.944397%);fill-opacity:1;" d="M 4.4375 124.816406 L 4.4375 168.765625 L 28.476563 168.765625 L 28.476563 163.421875 L 10.019531 163.421875 L 10.019531 124.816406 L 4.4375 124.816406 "/>
<path style=" stroke:none;fill-rule:nonzero;fill:rgb(3.392029%,3.665161%,3.944397%);fill-opacity:1;" d="M 63.925781 124.816406 L 42.800781 168.765625 L 48.871094 168.765625 L 54.457031 157.351563 L 75.582031 157.351563 L 75.582031 168.765625 L 81.164063 168.765625 L 81.164063 124.816406 Z M 67.082031 130.398438 L 75.339844 130.398438 L 75.339844 152.253906 L 56.640625 152.253906 L 67.082031 130.398438 "/>
<path style=" stroke:none;fill-rule:nonzero;fill:rgb(3.392029%,3.665161%,3.944397%);fill-opacity:1;" d="M 104.71875 124.816406 L 119.285156 124.816406 C 127.785156 124.816406 132.15625 130.15625 132.15625 136.226563 C 132.15625 140.597656 130.457031 143.511719 127.542969 145.453125 C 131.914063 147.152344 135.070313 150.554688 135.070313 156.382813 C 135.070313 164.394531 129 168.765625 119.773438 168.765625 L 104.476563 168.765625 L 104.476563 124.816406 Z M 119.285156 143.753906 C 123.898438 143.753906 126.8125 140.839844 126.8125 136.957031 C 126.8125 133.3125 124.144531 130.15625 119.285156 130.15625 L 110.304688 130.15625 L 110.304688 143.996094 L 119.285156 143.996094 Z M 120.742188 163.664063 C 126.570313 163.664063 129.484375 160.507813 129.484375 156.136719 C 129.484375 151.769531 126.570313 148.609375 120.742188 148.609375 L 110.304688 148.609375 L 110.304688 163.664063 L 120.742188 163.664063 "/>
</g>
</svg>
